<svg width="157" height="19" viewBox="0 0 157 19" fill="none" xmlns="http://www.w3.org/2000/svg">
<path fill-rule="evenodd" clip-rule="evenodd" d="M156.999 0.777145H0V10.2043C0 15.0559 3.88324 19.0002 8.69846 19.0002H148.301C153.077 19.0002 156.999 15.0559 156.999 10.2043V0.777145ZM36.5933 7.82878C36.5933 9.03411 36.2434 9.96722 35.5047 10.667C34.7659 11.3668 33.7162 11.7168 32.3553 11.7168H30.9945V15.6826H28.7783V4.13515H32.3553C33.755 4.13515 34.8048 4.44619 35.5047 5.10718C36.2045 5.72925 36.5933 6.62344 36.5933 7.82878ZM32.2776 9.77284C32.9774 9.77284 33.5217 9.61726 33.8717 9.26731C34.2605 8.95627 34.416 8.48977 34.416 7.86769C34.416 7.24552 34.2216 6.77902 33.8717 6.46798C33.5217 6.15694 32.9774 6.00137 32.2387 6.00137H30.9945V9.77284H32.2776ZM43.1636 13.1545H47.8682L48.879 15.6428H51.1341L46.0019 3.90093H45.0299L39.9365 15.6428H42.1527L43.1636 13.1545ZM45.5742 7.20579L47.1683 11.2882H43.9412L45.5742 7.20579ZM58.5606 11.0939H57.6664V15.6429H55.4502V4.09542H59.0661C60.3103 4.09542 61.2434 4.40646 61.9432 4.98971C62.6431 5.57287 62.993 6.42825 62.993 7.47801C62.993 8.29457 62.7986 8.95546 62.3709 9.53872C61.9821 10.1219 61.3989 10.5107 60.6991 10.7829L63.3818 15.6429H60.9324L58.5606 11.0939ZM57.7053 9.38315H58.8328C59.4549 9.38315 59.9603 9.22768 60.3103 8.95546C60.6602 8.68334 60.8546 8.25565 60.8546 7.67239C60.8546 7.12816 60.6602 6.70047 60.3103 6.38943C59.9603 6.07839 59.4549 5.92283 58.8717 5.92283H57.7053V9.38315ZM72.6724 6.15613H76.2494V4.09542H66.957V6.15613H70.4951V15.6429H72.6724V6.15613ZM90.3254 4.09298V15.7182H89.3533L82.8603 8.33095V15.6405H80.7607V3.97633H81.7328L88.2258 11.3637V4.09298H90.3254ZM102.883 15.6429V13.7378H98.3344V10.7051H102.3V8.76107H98.3344V6.00056H102.728V4.09542H96.1182V15.6429H102.883ZM111.05 11.0939H110.156V15.6429H107.939V4.09542H111.555C112.8 4.09542 113.733 4.40646 114.433 4.98971C115.132 5.57287 115.482 6.42825 115.482 7.47801C115.482 8.29457 115.288 8.95546 114.86 9.53872C114.471 10.1219 113.888 10.5107 113.188 10.7829L115.871 15.6429H113.422L111.05 11.0939ZM110.195 9.38315H111.322C111.944 9.38315 112.45 9.22768 112.8 8.95546C113.149 8.64442 113.344 8.25565 113.344 7.67239C113.344 7.12816 113.149 6.70047 112.8 6.38943C112.45 6.07839 111.944 5.92283 111.361 5.92283H110.195V9.38315ZM119.876 12.9577C120.381 14.9017 121.742 15.8738 123.958 15.8738C124.581 15.8738 125.086 15.8738 125.591 15.7182C126.097 15.5627 126.525 15.3294 126.874 15.0184C127.224 14.7074 127.497 14.3574 127.691 13.9297C127.885 13.502 127.963 13.0355 127.963 12.4912C127.963 11.5192 127.691 10.7415 127.186 10.1584C126.641 9.5751 125.864 9.14751 124.736 8.83637C124.631 8.80396 124.53 8.77317 124.434 8.7437C124.07 8.63223 123.769 8.53987 123.492 8.4476C123.184 8.34517 122.967 8.21267 122.787 8.10283C122.762 8.08769 122.738 8.07295 122.714 8.05883C122.52 7.94218 122.403 7.78661 122.325 7.63114C122.248 7.47557 122.209 7.3201 122.209 7.0868C122.17 6.69803 122.325 6.42581 122.598 6.19251C122.909 5.99812 123.259 5.88147 123.764 5.88147C124.775 5.88147 125.358 6.30916 125.591 7.12572L127.497 6.34807C126.991 4.75397 125.747 3.97633 123.881 3.97633C123.297 3.97633 122.792 4.05416 122.325 4.20963C121.859 4.3652 121.47 4.5985 121.159 4.87062C120.848 5.14274 120.576 5.4927 120.42 5.88147C120.226 6.27034 120.148 6.73685 120.148 7.20345C120.148 8.13656 120.42 8.91421 120.965 9.45855C121.509 10.0028 122.364 10.4305 123.492 10.7027C123.958 10.8193 124.386 10.936 124.658 11.0525C124.93 11.1692 125.203 11.3248 125.358 11.4414C125.514 11.5581 125.63 11.7135 125.708 11.9079C125.786 12.0635 125.825 12.2579 125.825 12.4912C125.825 12.9577 125.669 13.3076 125.358 13.5798C125.047 13.852 124.581 13.9686 124.036 13.9686C123.414 13.9686 122.948 13.852 122.598 13.5798C122.248 13.3076 121.976 12.88 121.781 12.2579L119.876 12.9577Z" fill="#00CFA6"/>
</svg>
